<svg viewBox="0 0 500 900" xmlns="http://www.w3.org/2000/svg" preserveAspectRatio="xMidYMid slice"><defs><linearGradient id="h31" x1="0" y1="0" x2="0" y2="1"><stop offset="0%" stop-color="#FFFFFF"/><stop offset="100%" stop-color="#8FE3D0"/></linearGradient></defs><line x1="300" y1="0" x2="300" y2="0" stroke="url(#h31)" opacity="0.22"/><line x1="379" y1="77" x2="221" y2="77" stroke="url(#h31)" opacity="0.15"/><line x1="278" y1="153" x2="322" y2="153" stroke="url(#h31)" opacity="0.10"/><line x1="227" y1="230" x2="373" y2="230" stroke="url(#h31)" opacity="0.18"/><line x1="343" y1="306" x2="257" y2="306" stroke="url(#h31)" opacity="0.21"/><line x1="361" y1="383" x2="239" y2="383" stroke="url(#h31)" opacity="0.12"/><line x1="240" y1="460" x2="360" y2="460" stroke="url(#h31)" opacity="0.12"/><line x1="256" y1="536" x2="344" y2="536" stroke="url(#h31)" opacity="0.21"/><line x1="372" y1="613" x2="228" y2="613" stroke="url(#h31)" opacity="0.19"/><line x1="324" y1="689" x2="276" y2="689" stroke="url(#h31)" opacity="0.10"/><line x1="221" y1="766" x2="379" y2="766" stroke="url(#h31)" opacity="0.15"/><line x1="298" y1="843" x2="302" y2="843" stroke="url(#h31)" opacity="0.22"/><path d="M300 0 L333 19 L360 38 L377 57 L379 77 L367 96 L343 115 L312 134 L278 153 L248 172 L227 191 L220 211 L227 230 L247 249 L277 268 L311 287 L343 306 L367 326 L379 345 L377 364 L361 383 L334 402 L301 421 L268 440 L240 460 L224 479 L221 498 L232 517 L256 536 L287 555 L321 574 L351 594 L372 613 L380 632 L373 651 L354 670 L324 689 L290 709 L258 728 L234 747 L221 766 L223 785 L238 804 L265 823 L298 843 L331 862 L359 881 L376 900 " fill="none" stroke="url(#h31)" stroke-width="2" opacity="0.2"/><circle cx="300" cy="0" r="3.4" fill="url(#h31)" opacity="0.34"/><circle cx="377" cy="57" r="2.9" fill="url(#h31)" opacity="0.28"/><circle cx="343" cy="115" r="2.1" fill="url(#h31)" opacity="0.17"/><circle cx="248" cy="172" r="2.2" fill="url(#h31)" opacity="0.18"/><circle cx="227" cy="230" r="3.0" fill="url(#h31)" opacity="0.29"/><circle cx="311" cy="287" r="3.4" fill="url(#h31)" opacity="0.34"/><circle cx="379" cy="345" r="2.8" fill="url(#h31)" opacity="0.26"/><circle cx="334" cy="402" r="2.1" fill="url(#h31)" opacity="0.17"/><circle cx="240" cy="460" r="2.2" fill="url(#h31)" opacity="0.19"/><circle cx="232" cy="517" r="3.1" fill="url(#h31)" opacity="0.30"/><circle cx="321" cy="574" r="3.4" fill="url(#h31)" opacity="0.34"/><circle cx="380" cy="632" r="2.7" fill="url(#h31)" opacity="0.25"/><circle cx="324" cy="689" r="2.0" fill="url(#h31)" opacity="0.16"/><circle cx="234" cy="747" r="2.3" fill="url(#h31)" opacity="0.20"/><circle cx="238" cy="804" r="3.1" fill="url(#h31)" opacity="0.31"/><circle cx="331" cy="862" r="3.3" fill="url(#h31)" opacity="0.33"/><path d="M300 0 L267 19 L240 38 L223 57 L221 77 L233 96 L257 115 L288 134 L322 153 L352 172 L373 191 L380 211 L373 230 L353 249 L323 268 L289 287 L257 306 L233 326 L221 345 L223 364 L239 383 L266 402 L299 421 L332 440 L360 460 L376 479 L379 498 L368 517 L344 536 L313 555 L279 574 L249 594 L228 613 L220 632 L227 651 L246 670 L276 689 L310 709 L342 728 L366 747 L379 766 L377 785 L362 804 L335 823 L302 843 L269 862 L241 881 L224 900 " fill="none" stroke="url(#h31)" stroke-width="2" opacity="0.2"/><circle cx="300" cy="0" r="2.0" fill="url(#h31)" opacity="0.16"/><circle cx="223" cy="57" r="2.5" fill="url(#h31)" opacity="0.22"/><circle cx="257" cy="115" r="3.3" fill="url(#h31)" opacity="0.33"/><circle cx="352" cy="172" r="3.2" fill="url(#h31)" opacity="0.32"/><circle cx="373" cy="230" r="2.4" fill="url(#h31)" opacity="0.21"/><circle cx="289" cy="287" r="2.0" fill="url(#h31)" opacity="0.16"/><circle cx="221" cy="345" r="2.6" fill="url(#h31)" opacity="0.24"/><circle cx="266" cy="402" r="3.3" fill="url(#h31)" opacity="0.33"/><circle cx="360" cy="460" r="3.2" fill="url(#h31)" opacity="0.31"/><circle cx="368" cy="517" r="2.3" fill="url(#h31)" opacity="0.20"/><circle cx="279" cy="574" r="2.0" fill="url(#h31)" opacity="0.16"/><circle cx="220" cy="632" r="2.7" fill="url(#h31)" opacity="0.25"/><circle cx="276" cy="689" r="3.4" fill="url(#h31)" opacity="0.34"/><circle cx="366" cy="747" r="3.1" fill="url(#h31)" opacity="0.30"/><circle cx="362" cy="804" r="2.3" fill="url(#h31)" opacity="0.19"/><circle cx="269" cy="862" r="2.1" fill="url(#h31)" opacity="0.17"/></svg>